<svg xmlns="http://www.w3.org/2000/svg" width="116" height="100" fill="none" viewBox="0 0 116 100"><path fill="url(#paint0_linear_519_2191)" fill-rule="evenodd" d="M35.3906 51.2337L63.644 99.8789L50.6598 100L43.1168 86.9309L35.52 99.9302L29.0686 99.9276L25.7644 94.2537L36.5876 75.7562L28.9045 62.4672L35.3906 51.2337Z" clip-rule="evenodd"/><path fill="url(#paint1_linear_519_2191)" fill-rule="evenodd" d="M45.5882 31.1962L17.33 79.8387L10.7325 68.7227L18.3482 55.6953L3.22342 55.6558L0 50.1013L3.29162 44.4202L24.8202 44.4877L32.5574 31.2298L45.5882 31.1962Z" clip-rule="evenodd"/><path fill="url(#paint2_linear_519_2191)" fill-rule="evenodd" d="M47.7561 70.0803L104.268 70.083L97.8811 81.32L82.7223 81.2783L90.2503 94.3171L87.0224 99.869L80.4265 99.8763L69.7211 81.3113L54.3008 81.2802L47.7561 70.0803Z" clip-rule="evenodd"/><path fill="url(#paint3_linear_519_2191)" fill-rule="evenodd" d="M80.6479 48.7663L52.3945 0.121063L65.3787 0L72.9217 13.0692L80.5185 0.0698382L86.9699 0.0723629L90.2741 5.74631L79.451 24.2438L87.134 37.5328L80.6479 48.7663Z" clip-rule="evenodd"/><path fill="url(#paint4_linear_519_2191)" fill-rule="evenodd" d="M35.3906 51.2337L63.644 99.8789L50.6598 100L43.1168 86.9309L35.52 99.9302L29.0686 99.9276L25.7644 94.2537L36.5876 75.7562L28.9045 62.4672L35.3906 51.2337Z" clip-rule="evenodd"/><path fill="url(#paint5_linear_519_2191)" fill-rule="evenodd" d="M68.2071 29.7968L11.6956 29.7941L18.0822 18.557L33.2409 18.5988L25.7129 5.55998L28.9409 0.00809219L35.5367 0.000854492L46.2421 18.5659L61.6624 18.597L68.2071 29.7968Z" clip-rule="evenodd"/><path fill="url(#paint6_linear_519_2191)" fill-rule="evenodd" d="M70.4119 68.7935L98.6701 20.151L105.268 31.267L97.6519 44.2944L112.777 44.3339L116 49.8883L112.708 55.5695L91.1799 55.5019L83.4427 68.7598L70.4119 68.7935Z" clip-rule="evenodd"/><defs><linearGradient id="paint0_linear_519_2191" x1="28.189" x2="70.553" y1="55.659" y2="75.103" gradientUnits="userSpaceOnUse"><stop offset="0" stop-color="#9A88AF"/><stop offset="0" stop-color="#9987B0"/><stop offset=".484" stop-color="#A18BBC"/><stop offset="1" stop-color="#9372BA"/></linearGradient><linearGradient id="paint1_linear_519_2191" x1="2.918" x2="50.157" y1="35.61" y2="61.77" gradientUnits="userSpaceOnUse"><stop offset="0" stop-color="#9A88AF"/><stop offset="0" stop-color="#9987B0"/><stop offset=".484" stop-color="#A18BBC"/><stop offset="1" stop-color="#9372BA"/></linearGradient><linearGradient id="paint2_linear_519_2191" x1="51.373" x2="85.292" y1="72.784" y2="110.795" gradientUnits="userSpaceOnUse"><stop offset="0" stop-color="#9A88AF"/><stop offset="0" stop-color="#9987B0"/><stop offset=".484" stop-color="#A18BBC"/><stop offset="1" stop-color="#9372BA"/></linearGradient><linearGradient id="paint3_linear_519_2191" x1="54.819" x2="97.183" y1="4.425" y2="23.869" gradientUnits="userSpaceOnUse"><stop offset="0" stop-color="#9A88AF"/><stop offset="0" stop-color="#9987B0"/><stop offset=".484" stop-color="#A18BBC"/><stop offset="1" stop-color="#9372BA"/></linearGradient><linearGradient id="paint4_linear_519_2191" x1="28.189" x2="70.553" y1="55.659" y2="75.103" gradientUnits="userSpaceOnUse"><stop offset="0" stop-color="#9A88AF"/><stop offset="0" stop-color="#9987B0"/><stop offset=".484" stop-color="#A18BBC"/><stop offset="1" stop-color="#9372BA"/></linearGradient><linearGradient id="paint5_linear_519_2191" x1="15.313" x2="49.231" y1="2.705" y2="40.715" gradientUnits="userSpaceOnUse"><stop offset="0" stop-color="#9A88AF"/><stop offset="0" stop-color="#9987B0"/><stop offset=".484" stop-color="#A18BBC"/><stop offset="1" stop-color="#9372BA"/></linearGradient><linearGradient id="paint6_linear_519_2191" x1="73.33" x2="120.569" y1="24.565" y2="50.724" gradientUnits="userSpaceOnUse"><stop offset="0" stop-color="#9A88AF"/><stop offset="0" stop-color="#9987B0"/><stop offset=".484" stop-color="#A18BBC"/><stop offset="1" stop-color="#9372BA"/></linearGradient></defs></svg>